HIERARCHY
ROOT Hips
{
  OFFSET 53.2803 87.3647 15.411
  CHANNELS 6 Xposition Yposition Zposition Zrotation Xrotation Yrotation
  JOINT ToSpine
  {
    OFFSET -2.69724 7.43032 -0.144315
    CHANNELS 3 Zrotation Xrotation Yrotation
    JOINT Spine
    {
      OFFSET -0.0310711 10.7595 1.96963
      CHANNELS 3 Zrotation Xrotation Yrotation
      JOINT Spine1
      {
        OFFSET 13.1342 3.43533 0.764692
        CHANNELS 3 Zrotation Xrotation Yrotation
        JOINT Neck
        {
          OFFSET 29.8703 7.82586 -0.130764
          CHANNELS 3 Zrotation Xrotation Yrotation
          JOINT Head
          {
            OFFSET 9.52751 0.295786 -0.907742
            CHANNELS 3 Zrotation Xrotation Yrotation
            End Site
            {
              OFFSET 16.4037 0.713936 2.7358
            }
          }
        }
        JOINT LeftShoulder
        {
          OFFSET 27.5574 4.95586 2.47156
          CHANNELS 3 Zrotation Xrotation Yrotation
          JOINT LeftArm
          {
            OFFSET 1.20734 -0.998971 20.1238
            CHANNELS 3 Zrotation Xrotation Yrotation
            JOINT LeftForeArm
            {
              OFFSET 26.8049 -0.0536703 -0.155908
              CHANNELS 3 Zrotation Xrotation Yrotation
              JOINT LeftHand
              {
                OFFSET 26.6817 0 0.320147
                CHANNELS 3 Zrotation Xrotation Yrotation
                End Site
                {
                  OFFSET 18.6119 0 0.382219
                }
              }
            }
          }
        }
        JOINT RightShoulder
        {
          OFFSET 27.5927 4.71444 -2.65209
          CHANNELS 3 Zrotation Xrotation Yrotation
          JOINT RightArm
          {
            OFFSET 2.83739 -1.17114 -18.7564
            CHANNELS 3 Zrotation Xrotation Yrotation
            JOINT RightForeArm
            {
              OFFSET 28.839 -0.0548439 1.22491
              CHANNELS 3 Zrotation Xrotation Yrotation
              JOINT RightHand
              {
                OFFSET 26.5114 0 -0.101894
                CHANNELS 3 Zrotation Xrotation Yrotation
                End Site
                {
                  OFFSET 18.2168 0 0
                }
              }
            }
          }
        }
      }
    }
  }
  JOINT LeftUpLeg
  {
    OFFSET -4.76168 -1.9167 -10.2353
    CHANNELS 3 Zrotation Xrotation Yrotation
    JOINT LeftLeg
    {
      OFFSET 2.55951 -42.0585 -8.02213
      CHANNELS 3 Zrotation Xrotation Yrotation
      JOINT LeftFoot
      {
        OFFSET 3.16357 -42.5282 -3.95426
        CHANNELS 3 Zrotation Xrotation Yrotation
        JOINT LeftToeBase
        {
          OFFSET 0.346054 -6.02161 12.8035
          CHANNELS 3 Zrotation Xrotation Yrotation
          End Site
          {
            OFFSET 0.134235 -1.35082 5.13018
          }
        }
      }
    }
  }
  JOINT RightUpLeg
  {
    OFFSET -4.94151 -1.41743 10.6446
    CHANNELS 3 Zrotation Xrotation Yrotation
    JOINT RightLeg
    {
      OFFSET -2.56294 -42.0364 -7.94377
      CHANNELS 3 Zrotation Xrotation Yrotation
      JOINT RightFoot
      {
        OFFSET -3.0952 -42.555 -4.02241
        CHANNELS 3 Zrotation Xrotation Yrotation
        JOINT RightToeBase
        {
          OFFSET -0.0828122 -6.13587 12.8035
          CHANNELS 3 Zrotation Xrotation Yrotation
          End Site
          {
            OFFSET -0.131328 -1.35082 5.13018
          }
        }
      }
    }
  }
}
MOTION
Frames:	18
Frame Time:	0.0333333
36.2053 91.5117 -0.246875 -71.9932 -29.9956 -171.968 -70.1915 0 88.8779 85.7543 73.6678 11.2542 6.4479 24.8719 -4.03107 -133.474 8.43665 -163.004 -146.337 41.7172 -175.16 -0.391639 -16.404 -33.7226 -131.583 21.8962 -67.37 10.787 2.1357 -78.3633 0.420957 0.000575815 0.35866 -1.666 9.93705 30.4834 -50.1016 -26.3641 155.743 12.7272 0.414196 91.5516 0.58676 0.000331358 0.0646653 -38.1142 15.3421 96.184 -2.6329 40.1375 -7.12844 -4.56313 -2.96139 0.1503 2.48272 -4.0909 -4.035 -56.778 -16.6692 74.1665 1.45429 41.3037 -3.17221 -19.5401 -5.12543 2.21376 0.875231 -30.5914 -25.8493 
36.0902 91.4835 -0.271976 -71.9463 -29.8485 -172.044 -70.1915 0 88.8779 84.7272 73.7512 12.2528 6.70778 25.0225 -4.22906 -133.537 8.34165 -163.194 -146.386 41.6884 -175.125 -0.367824 -16.3327 -33.5983 -131.274 22.2219 -67.5329 10.9004 2.15046 -78.4025 0.420957 0.000575815 0.35866 -1.69355 10.0472 30.5594 -50.5886 -26.4658 155.422 13.1188 0.359463 91.2832 0.58676 0.000331358 0.0646653 -38.198 15.5236 96.468 -2.636 40.1129 -7.18588 -4.68719 -2.99138 0.159672 2.59124 -4.27375 -4.24248 -56.6893 -16.6713 74.2122 1.57755 41.3848 -2.34447 -20.2362 -5.07408 2.27801 0.611497 -30.8043 -27.8466 
35.9569 91.4247 -0.3189 -71.761 -29.6434 -172.162 -70.1915 0 88.8779 83.5986 73.9506 13.1565 6.8194 25.265 -4.23401 -133.867 8.3554 -163.271 -146.614 41.8317 -174.978 -0.316897 -16.1337 -33.5026 -130.719 22.9436 -67.9709 10.7547 2.11291 -78.444 0.420957 0.000575815 0.35866 -1.6687 10.2009 30.0115 -51.4847 -27.0372 154.904 14.3413 0.251312 90.7227 0.58676 0.000331358 0.0646653 -38.2599 15.6658 96.8914 -2.60535 39.998 -6.99424 -4.65474 -3.06717 0.147292 2.85036 -4.52609 -5.31825 -56.3661 -16.779 74.2819 1.75109 41.7179 -1.2611 -20.9869 -5.60308 2.28709 0.436026 -30.1039 -30.1875 
35.817 91.4308 -0.378513 -71.4943 -29.485 -172.25 -70.1915 0 88.8779 82.6423 74.1311 13.8221 6.86483 25.5507 -4.49973 -134.499 8.03877 -164.012 -146.94 41.7702 -175.281 -0.147818 -15.5569 -32.8461 -130.504 24.7026 -68.4084 11.2846 2.25127 -78.2906 0.420957 0.000575815 0.35866 -1.67441 10.1739 30.1191 -53.3586 -27.0818 152.902 15.9199 0.159695 90.3607 0.58676 0.000331358 0.0646653 -38.3019 15.655 97.0069 -2.60604 39.7742 -7.21226 -4.72256 -3.26608 0.130506 2.82047 -4.61819 -4.84436 -55.9797 -16.9009 74.4143 1.83176 42.0292 -0.830951 -20.7422 -6.70163 2.15605 0.628379 -28.9084 -30.2239 
35.6729 91.3784 -0.417262 -71.4416 -29.1455 -172.544 -70.1915 0 88.8779 84.3217 74.6101 11.8523 6.07288 26.1262 -4.77768 -134.648 7.6657 -165.036 -147.261 41.6918 -175.189 -0.0262442 -15.1169 -32.2901 -130.272 26.647 -69.2938 12.7047 2.568 -78.1781 0.420957 0.000575815 0.35866 -1.67571 10.0022 30.4628 -56.0216 -27.7637 148.83 17.2057 0.245124 90.5651 0.58676 0.000331358 0.0646653 -38.6196 15.7544 97.294 -2.64523 39.634 -7.68749 -5.30846 -3.40929 0.17296 3.01357 -5.70388 -2.88696 -55.5142 -17.2075 74.5723 2.00247 42.6377 -0.0144844 -21.1614 -7.00645 2.15361 0.565641 -28.7978 -31.0713 
35.5198 91.2861 -0.376235 -71.2945 -28.558 -173.001 -70.1915 0 88.8779 86.9173 75.1134 8.84048 4.65654 26.7175 -4.73545 -134.516 7.51845 -165.29 -147.995 41.786 -174.224 -0.0115751 -15.0472 -32.3097 -130.044 27.6553 -70.3045 14.1579 2.76795 -78.5649 0.420957 0.000575815 0.35866 -1.65498 9.75561 30.7179 -59.3819 -29.0312 142.425 18.006 0.674735 91.8245 0.58676 0.000331358 0.0646653 -39.0758 15.8811 97.9072 -2.63162 39.5218 -7.6312 -6.39417 -4.47096 0.134452 3.0562 -6.05087 -2.0182 -54.7262 -17.55 75.1902 2.14667 43.3862 0.585233 -21.6803 -7.12817 2.17524 0.442018 -29.1552 -31.6157 
35.2942 91.3196 -0.209544 -70.9682 -26.6755 -173.79 -70.1915 0 88.8779 87.051 75.2894 8.35869 3.83773 27.0392 -4.90195 -135.415 6.90892 -164.222 -149.51 41.3793 -173.06 0.150387 -14.3496 -32.0553 -130.593 28.15 -70.4691 14.9428 2.54222 -79.9527 0.420957 0.000575815 0.35866 -1.67066 9.41805 31.589 -62.6124 -29.4257 135.004 19.4577 1.55946 94.1754 0.58676 0.000331358 0.0646653 -39.5964 16.2409 98.6041 -2.55964 39.6976 -6.73229 -7.34772 -5.42729 0.0890462 2.9207 -5.36909 -3.29496 -53.1283 -16.8564 78.2522 2.15061 43.8777 0.261227 -21.0662 -7.6581 2.07557 0.624787 -28.2253 -31.3601 
35.1506 91.3041 0.181341 -70.7957 -22.263 -175.2 -70.1915 0 88.8779 87.5594 75.3584 8.18765 3.16497 27.3218 -5.33516 -136.754 5.67528 -162.192 -150.243 40.1556 -172.123 0.447109 -13.1034 -31.1048 -132.812 28.2048 -68.8273 14.5939 1.76797 -82.7306 0.420957 0.000575815 0.35866 -1.66445 9.11277 32.1905 -65.3926 -29.5496 127.297 20.6962 2.78707 97.0749 0.58676 0.000331358 0.0646653 -39.8577 16.3823 96.7563 -2.4329 41.4473 -4.40022 -7.21859 -4.15251 0.252619 4.18982 -7.86641 -4.77769 -50.5204 -14.8196 84.4 2.11592 44.295 -0.261447 -20.5266 -7.54507 2.05243 0.722442 -27.7003 -31.2306 
34.972 91.2321 0.877671 -71.1266 -14.8123 -177.17 -70.1915 0 88.8779 88.4524 75.4679 7.94713 2.6083 27.4345 -4.94954 -137.888 4.52256 -159.326 -150.78 38.9313 -170.626 0.785177 -11.5029 -30.0085 -135.907 26.5247 -65.5421 13.3477 0.473171 -86.6915 0.420957 0.000575815 0.35866 -1.64608 9.11988 31.9615 -67.4196 -29.6794 120.377 23.5533 3.99349 98.8161 0.58676 0.000331358 0.0646653 -39.6049 16.8952 93.5476 -2.60776 46.5157 -1.54953 -7.48637 -1.62701 0.65973 5.93032 -12.5515 -1.39575 -47.9632 -11.8181 92.0241 2.02791 44.1931 -0.921994 -19.0344 -7.67358 1.94732 1.15209 -27.3847 -27.279 
34.6376 91.1412 1.69736 -72.0832 -4.82918 -179.162 -70.1915 0 88.8779 92.7547 75.7152 4.53041 1.44729 27.5669 -3.85395 -138.303 5.04359 -157.819 -152.261 39.5938 -168.711 1.15418 -9.59515 -28.5476 -138.919 24.095 -62.5993 12.0424 -0.07939 -90.4231 0.420957 0.000575815 0.35866 -1.5724 8.94926 31.4984 -68.4502 -29.8188 115.028 26.5142 4.58513 98.8443 0.58676 0.000331358 0.0646653 -39.12 19.1771 90.8419 -3.0587 54.8203 1.97798 -7.19037 2.57443 1.18719 6.907 -14.5603 -1.44059 -46.592 -8.04889 98.9419 2.11029 43.1538 0.660913 -17.5573 -6.93263 1.90547 1.48089 -27.5661 -22.919 
34.157 90.8923 2.4839 -73.1709 5.89923 178.665 -70.1915 0 88.8779 97.8279 75.8252 -0.503497 -0.0729059 27.5635 -2.41395 -138.236 7.82693 -159.282 -154.73 42.924 -166.957 1.36257 -8.17823 -26.2917 -141.561 22.1824 -60.9173 11.0239 -0.72287 -92.6362 0.420957 0.000575815 0.35866 -1.47839 8.6628 31.0321 -69.7893 -29.7305 109.852 29.1824 4.45116 97.6599 0.58676 0.000331358 0.0646653 -39.0997 20.0902 86.4919 -5.13483 63.8 4.77618 -5.68665 8.20739 1.68209 4.88555 -9.52075 -4.79328 -45.7002 -4.26913 105.758 2.38324 42.284 3.22389 -17.3119 -4.98884 2.03337 1.61902 -29.6604 -19.9359 
33.356 90.4793 3.59641 -73.8194 16.4726 175.731 -70.1915 0 88.8779 100.596 75.7418 -3.92996 -1.24774 27.5217 -1.61143 -138.579 14.2366 -162.188 -161.753 50.3288 -162.087 1.50252 -6.89256 -23.9856 -142.373 21.5669 -62.2555 11.0496 -0.836927 -93.5675 0.420957 0.000575815 0.35866 -1.4226 8.51447 30.6864 -71.3806 -29.1562 103.501 31.5775 3.47017 95.4582 0.58676 0.000331358 0.0646653 -40.5179 17.1752 82.0167 -9.49979 71.707 5.50699 -4.04251 11.2986 1.69608 0.662813 -0.407779 -2.36846 -44.4399 -1.3426 112.597 2.69575 42.5685 5.56404 -16.6649 -3.63669 2.06488 1.71553 -31.3094 -18.5127 
32.3684 89.8979 4.98456 -74.0028 26.9757 172.156 -70.1915 0 88.8779 105.806 75.2802 -10.3261 -3.1141 27.422 -1.46824 -139.492 23.1479 -166.387 -174.38 59.8303 -153.144 1.58077 -5.63437 -21.717 -141.858 22.2635 -65.9869 12.4152 -0.97746 -93.6971 0.420957 0.000575815 0.35866 -1.33512 8.31835 30.0363 -72.8413 -27.7712 96.679 34.1325 1.94046 92.3225 0.58676 0.000331358 0.0646653 -43.0478 12.3695 79.9072 -18.7068 77.9906 8.80488 -2.6256 5.00243 0.757006 -0.676611 2.30172 -1.51836 -43.143 0.651992 119.068 3.07161 43.0861 8.56159 -16.319 -2.66388 2.09653 1.75519 -32.7793 -17.649 
31.382 89.3309 6.16978 -72.8101 37.0883 168.507 -70.1915 0 88.8779 107.207 74.3974 -13.3854 -4.32312 26.4407 -1.10718 -140.69 31.923 -172.291 170.012 68.4609 -142.105 1.59748 -4.68289 -19.7001 -140.687 24.4005 -70.5058 12.6219 -0.984294 -93.6659 0.420957 0.000575815 0.35866 -1.05718 8.09286 27.0582 -74.6052 -29.3327 90.218 35.6918 -1.07139 88.704 0.58676 0.000331358 0.0646653 -45.2452 7.24758 78.429 -34.8912 81.4345 11.8395 -3.18995 -5.9996 -0.330244 3.085 -7.91803 3.01909 -41.7776 3.43349 124.881 3.32208 42.967 11.3429 -16.4307 -0.956254 2.21581 2.03035 -33.9562 -15.6075 
30.5174 88.7126 7.46411 -70.927 45.7382 165.477 -70.1915 0 88.8779 103.653 73.0464 -11.9557 -3.44777 24.5314 -1.22084 -137.582 40.2896 175.67 152.7 77.0146 -127.52 1.43875 -5.44781 -17.9789 -137.612 28.415 -77.0357 13.8004 -0.870434 -92.8422 0.420957 0.000575815 0.35866 -0.976827 7.82411 26.4574 -79.0341 -30.4911 78.5326 33.5476 -2.69605 85.6132 0.58676 0.000331358 0.0646653 -47.0491 1.05017 75.0378 -42.4519 82.0206 8.16502 -4.12425 -13.4769 -1.11881 8.42429 -17.7069 6.3367 -40.8093 7.12092 129.978 3.51615 42.871 13.4527 -16.0101 1.30053 2.30734 2.1199 -34.335 -14.9773 
29.6533 87.9078 9.50312 -68.4259 52.679 162.549 -70.1915 0 88.8779 95.7713 70.6993 -7.72445 -0.385875 21.0374 -0.0911425 -127.401 45.2486 158.756 120.237 82.8575 -93.3694 1.18162 -8.43632 -17.2911 -130.739 33.4909 -85.443 17.0104 -0.808873 -91.5781 0.420957 0.000575815 0.35866 -1.18866 7.57848 29.8511 -82.851 -26.3295 64.9549 31.5853 -2.93122 85.0507 0.58676 0.000331358 0.0646653 -48.502 -7.60675 69.815 -32.1306 80.0023 -1.60906 -4.01968 -16.5616 -1.48807 9.56298 -19.9699 1.72709 -39.3126 9.69587 133.85 4.25644 42.3314 15.6263 -14.3264 3.71799 2.19353 1.96887 -34.802 -15.7456 
28.7402 87.2644 12.3662 -61.0969 61.205 156.955 -70.1915 0 88.8779 89.6397 67.6244 -4.21162 3.85747 16.5784 2.41604 -117.103 44.6769 145.78 92.4362 83.58 -61.9245 0.874693 -12.204 -18.5189 -119.128 36.8761 -95.718 19.1824 0.233528 -89.4607 0.420957 0.000575815 0.35866 -1.25707 7.24555 31.6862 -85.6072 -23.3405 54.8066 29.9988 -2.42969 85.6153 0.58676 0.000331358 0.0646653 -49.1771 -12.932 66.1155 -22.8007 77.2745 -6.15305 -3.81498 -15.997 -1.43162 9.44484 -19.8791 0.0447432 -34.6359 9.95751 124.277 0.793979 38.3293 31.0962 -9.42078 7.87853 1.43313 3.14215 -33.5757 -8.9448 
28.1155 86.8168 15.5076 -36.9965 73.3614 134.572 -70.1915 0 88.8779 86.7389 64.9717 -4.99227 8.55947 13.0016 4.53741 -109.112 39.5736 138.876 100.805 83.1856 -66.4634 0.497686 -15.622 -19.4307 -106.274 36.3287 -105.329 19.9402 1.33046 -85.1979 0.420957 0.000575815 0.35866 -1.20032 6.62366 32.6018 -89.8353 -23.3095 48.5863 26.2713 -1.16456 87.311 0.58676 0.000331358 0.0646653 -49.4861 -10.2993 69.8044 -19.6383 76.141 -6.47187 -3.53406 -21.2797 -2.0578 6.33998 -13.8568 5.74337 -29.8837 15.5597 98.1286 -2.09432 28.2922 54.6462 2.26946 16.6586 -1.98016 2.35213 -27.6008 -10.9474 
